<?xml version="1.0" encoding="UTF-8" standalone="no"?>
<svg
   xmlns:dc="http://purl.org/dc/elements/1.1/"
   xmlns:cc="http://creativecommons.org/ns#"
   xmlns:rdf="http://www.w3.org/1999/02/22-rdf-syntax-ns#"
   xmlns:svg="http://www.w3.org/2000/svg"
   xmlns="http://www.w3.org/2000/svg"
   xmlns:sodipodi="http://sodipodi.sourceforge.net/DTD/sodipodi-0.dtd"
   xmlns:inkscape="http://www.inkscape.org/namespaces/inkscape"
   enable-background="new 0 0 512 512"
   height="512px"
   id="Layer_1"
   version="1.1"
   viewBox="0 0 512 512"
   width="512px"
   xml:space="preserve"
   sodipodi:docname="trash_full.svg"
   inkscape:version="0.92.4 5da689c313, 2019-01-14"><metadata
     id="metadata17"><rdf:RDF><cc:Work
         rdf:about=""><dc:format>image/svg+xml</dc:format><dc:type
           rdf:resource="http://purl.org/dc/dcmitype/StillImage" /></cc:Work></rdf:RDF></metadata><defs
     id="defs15" /><sodipodi:namedview
     pagecolor="#ffffff"
     bordercolor="#666666"
     borderopacity="1"
     objecttolerance="10"
     gridtolerance="10"
     guidetolerance="10"
     inkscape:pageopacity="0"
     inkscape:pageshadow="2"
     inkscape:window-width="1366"
     inkscape:window-height="684"
     id="namedview13"
     showgrid="false"
     inkscape:zoom="0.4609375"
     inkscape:cx="256"
     inkscape:cy="256"
     inkscape:window-x="0"
     inkscape:window-y="20"
     inkscape:window-maximized="1"
     inkscape:current-layer="g10" /><g
     id="g10"><path
       d="M444.852,66.908h-99.339V47.04c0-21.943-17.792-39.736-39.736-39.736h-99.339   c-21.944,0-39.736,17.793-39.736,39.736v19.868H67.363v19.868h20.47l19.887,377.489c0,21.944,17.792,39.736,39.736,39.736h218.546   c21.944,0,39.736-17.792,39.736-39.736l19.538-377.489h19.577V66.908z M186.57,47.04c0-10.962,8.926-19.868,19.868-19.868h99.339   c10.962,0,19.868,8.906,19.868,19.868v19.868H186.57V47.04z M385.908,463.236l-0.039,0.505v0.524   c0,10.943-8.906,19.868-19.868,19.868H147.455c-10.942,0-19.868-8.925-19.868-19.868v-0.524l-0.019-0.523L107.72,86.776h297.669   L385.908,463.236z"
       fill="#494949"
       id="path2" /><rect
       fill="#494949"
       height="317.885"
       width="19.868"
       x="246.173"
       y="126.511"
       id="rect4" /><polygon
       fill="#494949"
       points="206.884,443.757 186.551,126.493 166.722,127.753 187.056,445.017  "
       id="polygon6" /><polygon
       fill="#494949"
       points="345.649,127.132 325.82,125.891 305.777,443.776 325.606,445.017  "
       id="polygon8" /><polygon
       transform="matrix(0,0.89196297,-0.82291199,0,490.61576,37.678473)"
       style="fill:#494949"
       points="186.551,126.493 166.722,127.753 187.056,445.017 206.884,443.757 "
       id="polygon6-3" /><polygon
       transform="matrix(0,0.89196297,-0.77523445,-0.1569349,479.69661,176.48405)"
       style="fill:#494949"
       points="166.722,127.753 187.056,445.017 206.884,443.757 186.551,126.493 "
       id="polygon6-3-6"
       inkscape:transform-center-x="-37.28897"
       inkscape:transform-center-y="-24.993319" /><polygon
       transform="matrix(0.22102546,0.8612772,-0.68953371,0.03234544,411.67314,210.22161)"
       style="fill:#494949"
       points="187.056,445.017 206.884,443.757 186.551,126.493 166.722,127.753 "
       id="polygon6-3-6-7"
       inkscape:transform-center-x="-25.102958"
       inkscape:transform-center-y="-32.978655" /></g></svg>